<?xml version="1.0" encoding="utf-8"?>
<!-- Generator: Adobe Illustrator 22.0.0, SVG Export Plug-In . SVG Version: 6.00 Build 0)  -->
<svg version="1.1" id="Layer_1" xmlns="http://www.w3.org/2000/svg" xmlns:xlink="http://www.w3.org/1999/xlink" x="0px" y="0px"
	 viewBox="0 0 142 28" style="enable-background:new 0 0 142 28;" xml:space="preserve">
<style type="text/css">
	.st0{fill:#FFFFFF;}
	.st1{opacity:0.55;}
	.st2{opacity:0.44;}
	.st3{opacity:0.88;}
	.st4{fill:#575756;}
	.st5{fill:#FDC800;}
	.st6{fill:#929191;}
	.st7{fill:#2B3788;}
</style>
<g>
	<path class="st0" d="M64.5,27.6H56l-0.4-0.4V0.8L56,0.4h8.6c9.7,0,13.2,5.1,13.2,13.6C77.7,22.6,74.2,27.6,64.5,27.6z M64.9,5.1
		h-3.5L61,5.4v17.1l0.4,0.4h3.5c5.4,0,7.4-2.7,7.4-8.9S70.4,5.1,64.9,5.1z"/>
	<path class="st0" d="M87.5,27.6h-4.7l-0.4-0.4V0.8l0.4-0.4h4.7l0.4,0.4v26.4L87.5,27.6z"/>
	<path class="st0" d="M111.6,19.4L112,19h4.7l0.4,0.4c-0.8,5.4-5.1,8.6-11.3,8.6c-8.6,0-13.2-5.8-13.2-14s4.7-14,13.2-14
		c6.2,0,10.5,3.1,11.3,8.2l-0.4,0.4H112l-0.4-0.4c-0.8-2.3-2.7-3.5-5.8-3.5c-5.4,0-7.8,3.9-7.8,9.3s2.3,9.3,7.8,9.3
		C108.9,23.3,110.8,22.2,111.6,19.4z"/>
	<path class="st0" d="M140.4,27.6h-18.3l-0.4-0.4V0.8l0.4-0.4h18.3l0.4,0.4v3.9l-0.4,0.4h-12.8l-0.4,0.4v5.4l0.4,0.4h12.1l0.4,0.4
		v3.9l-0.4,0.4h-12.1l-0.4,0.4v6.2l0.4,0.4h12.8l0.4,0.4v3.9L140.4,27.6z"/>
</g>
<g>
	<g class="st1">
		<path class="st0" d="M20.3,27.7H47V0.3H20.3V27.7z"/>
	</g>
	<g class="st2">
		<g>
			<path class="st0" d="M0,6.4h6.2V0.3H0V6.4z"/>
		</g>
		<g>
			<path class="st0" d="M0,13.5h6.2V7.4H0V13.5z"/>
		</g>
		<g>
			<path class="st0" d="M0,20.6h6.2v-6.1H0V20.6z"/>
		</g>
		<g>
			<path class="st0" d="M0,27.7h6.2v-6.1H0V27.7z"/>
		</g>
	</g>
	<g class="st3">
		<g>
			<path class="st0" d="M7.2,13.5h12V0.3h-12C7.2,0.3,7.2,13.5,7.2,13.5z"/>
		</g>
		<g>
			<path class="st0" d="M7.2,27.7h12V14.5h-12C7.2,14.5,7.2,27.7,7.2,27.7z"/>
		</g>
	</g>
</g>
<g>
	<path class="st4" d="M66.3,27.3h-8.5l-0.4-0.4V0.8l0.4-0.4h8.5c9.6,0,13.1,5,13.1,13.5C79.4,22.3,75.9,27.3,66.3,27.3z M66.7,5
		h-3.5l-0.4,0.4v16.9l0.4,0.4h3.5c5.4,0,7.3-2.7,7.3-8.9S72.1,5,66.7,5z"/>
	<path class="st4" d="M89,27.3h-4.6L84,26.9V0.8l0.4-0.4H89l0.4,0.4v26.2L89,27.3z"/>
	<path class="st4" d="M112.9,19.2l0.4-0.4h4.6l0.4,0.4c-0.8,5.4-5,8.5-11.2,8.5c-8.5,0-13.1-5.8-13.1-13.9S98.7,0,107.1,0
		c6.2,0,10.4,3.1,11.2,8.1l-0.4,0.4h-4.6l-0.4-0.4c-0.8-2.3-2.7-3.5-5.8-3.5c-5.4,0-7.7,3.9-7.7,9.2s2.3,9.2,7.7,9.2
		C110.2,23.1,112.1,21.9,112.9,19.2z"/>
	<path class="st4" d="M141.4,27.3h-18.1l-0.4-0.4V0.8l0.4-0.4h18.1l0.4,0.4v3.8L141.4,5h-12.7l-0.4,0.4v5.4l0.4,0.4h11.9l0.4,0.4
		v3.8l-0.4,0.4h-11.9l-0.4,0.4v6.2l0.4,0.4h12.7l0.4,0.4v3.9L141.4,27.3z"/>
</g>
<g>
	<path class="st5" d="M20.6,27.3h26.3v-27H20.6V27.3z"/>
</g>
<g>
	<path class="st6" d="M0,6.3h6.5V0.4H0V6.3z"/>
</g>
<g>
	<path class="st6" d="M0,13.3h6.5V7.4H0V13.3z"/>
</g>
<g>
	<path class="st6" d="M0,20.3h6.5v-5.9H0V20.3z"/>
</g>
<g>
	<path class="st6" d="M0,27.3h6.5v-5.9H0V27.3z"/>
</g>
<g>
	<path class="st7" d="M7.7,13.3h11.8V0.4H7.7V13.3z"/>
</g>
<g>
	<path class="st7" d="M7.7,27.3h11.8V14.4H7.7V27.3z"/>
</g>
</svg>
